<?xml version="1.0" encoding="UTF-8"?><svg id="Layer_1" xmlns="http://www.w3.org/2000/svg" viewBox="0 0 426.72 148.68"><path d="M169.03,131.4l3.69-9.6h1.37l3.93,9.6h-1.45l-1.12-2.91h-4.01l-1.05,2.91h-1.35ZM171.8,127.46h3.25l-1-2.66c-.31-.81-.53-1.47-.68-1.99-.12.62-.29,1.23-.52,1.83l-1.05,2.82Z" fill="#fff"/><path d="M180.49,131.4v-6.95h1.06v.99c.51-.76,1.25-1.15,2.21-1.15.42,0,.8.08,1.16.23.35.15.61.35.79.59.17.24.3.53.37.87.04.22.07.6.07,1.15v4.28h-1.18v-4.23c0-.48-.05-.84-.14-1.08-.09-.24-.25-.43-.49-.57-.23-.14-.51-.21-.82-.21-.5,0-.94.16-1.3.48-.36.32-.55.92-.55,1.81v3.8h-1.18Z" fill="#fff"/><path d="M195.26,131.4v-9.6h1.27v9.6h-1.27Z" fill="#fff"/><path d="M200.23,131.4v-6.95h1.06v.99c.51-.76,1.25-1.15,2.21-1.15.42,0,.8.08,1.16.23.35.15.61.35.79.59.17.24.3.53.37.87.04.22.07.6.07,1.15v4.28h-1.18v-4.23c0-.48-.05-.84-.14-1.08-.09-.24-.25-.43-.49-.57-.23-.14-.51-.21-.82-.21-.5,0-.94.16-1.3.48-.36.32-.55.92-.55,1.81v3.8h-1.18Z" fill="#fff"/><path d="M209.3,123.15v-1.36h1.18v1.36h-1.18ZM209.3,131.4v-6.95h1.18v6.95h-1.18Z" fill="#fff"/><path d="M216.46,130.34l.17,1.04c-.33.07-.63.1-.89.1-.43,0-.76-.07-1-.2s-.4-.31-.5-.53c-.1-.22-.14-.68-.14-1.39v-4h-.86v-.92h.86v-1.72l1.17-.71v2.43h1.19v.92h-1.19v4.07c0,.34.02.55.06.65.04.1.11.17.2.23.09.06.23.09.4.09.13,0,.3-.02.52-.05Z" fill="#fff"/><path d="M219.23,123.15v-1.36h1.18v1.36h-1.18ZM219.23,131.4v-6.95h1.18v6.95h-1.18Z" fill="#fff"/><path d="M228.35,130.54c-.44.37-.86.63-1.26.79-.4.15-.84.23-1.3.23-.76,0-1.35-.19-1.76-.56-.41-.37-.62-.85-.62-1.43,0-.34.08-.65.23-.93.15-.28.36-.51.61-.68.25-.17.53-.3.85-.39.23-.06.58-.12,1.05-.18.95-.11,1.65-.25,2.1-.41,0-.16,0-.26,0-.31,0-.48-.11-.82-.33-1.02-.3-.27-.75-.4-1.34-.4-.55,0-.96.1-1.23.29-.26.19-.46.54-.59,1.03l-1.15-.16c.1-.49.28-.89.52-1.2.24-.3.59-.54,1.04-.7.45-.16.98-.25,1.58-.25s1.08.07,1.45.21c.37.14.64.32.82.53.17.21.3.48.37.8.04.2.06.56.06,1.09v1.57c0,1.1.02,1.79.08,2.08.05.29.15.57.3.83h-1.23c-.12-.24-.2-.53-.24-.86ZM228.25,127.91c-.43.17-1.07.32-1.93.45-.48.07-.83.15-1.03.24-.2.09-.36.22-.46.38-.11.17-.16.35-.16.56,0,.31.12.58.36.79.24.21.59.31,1.04.31s.86-.1,1.21-.3c.35-.2.61-.47.78-.82.13-.27.19-.66.19-1.18v-.43Z" fill="#fff"/><path d="M235.45,130.34l.17,1.04c-.33.07-.63.1-.89.1-.43,0-.76-.07-1-.2s-.4-.31-.5-.53c-.1-.22-.14-.68-.14-1.39v-4h-.86v-.92h.86v-1.72l1.17-.71v2.43h1.19v.92h-1.19v4.07c0,.34.02.55.06.65.04.1.11.17.2.23.09.06.23.09.4.09.13,0,.3-.02.52-.05Z" fill="#fff"/><path d="M238.22,123.15v-1.36h1.18v1.36h-1.18ZM238.22,131.4v-6.95h1.18v6.95h-1.18Z" fill="#fff"/><path d="M244.74,131.4l-2.65-6.95h1.24l1.49,4.16c.16.45.31.92.45,1.4.1-.37.25-.81.44-1.32l1.55-4.24h1.21l-2.63,6.95h-1.1Z" fill="#fff"/><path d="M255.88,129.16l1.22.15c-.19.71-.55,1.26-1.07,1.66-.52.39-1.18.59-1.99.59-1.02,0-1.82-.31-2.42-.94-.6-.63-.89-1.5-.89-2.64s.3-2.08.9-2.72c.6-.65,1.38-.97,2.34-.97s1.69.32,2.28.95c.59.63.88,1.52.88,2.67,0,.07,0,.17,0,.31h-5.19c.04.76.26,1.35.65,1.76.39.41.87.61,1.45.61.43,0,.8-.11,1.11-.34.31-.23.55-.59.73-1.09ZM252.01,127.25h3.88c-.05-.58-.2-1.02-.45-1.32-.38-.45-.86-.68-1.46-.68-.54,0-1,.18-1.37.54-.37.36-.57.85-.61,1.45Z" fill="#fff"/><path d="M265.08,127.92c0-1.29.36-2.24,1.07-2.86.6-.51,1.33-.77,2.19-.77.96,0,1.74.31,2.34.94.61.63.91,1.49.91,2.6,0,.9-.13,1.6-.4,2.11-.27.51-.66.91-1.17,1.2-.51.28-1.07.43-1.68.43-.97,0-1.76-.31-2.36-.94-.6-.62-.9-1.52-.9-2.7ZM266.3,127.92c0,.89.19,1.56.58,2,.39.44.88.66,1.47.66s1.07-.22,1.46-.67c.39-.45.58-1.12.58-2.04,0-.86-.2-1.51-.59-1.95-.39-.44-.88-.66-1.46-.66s-1.08.22-1.47.66c-.39.44-.58,1.11-.58,2Z" fill="#fff"/><path d="M274.87,131.4v-6.04h-1.04v-.92h1.04v-.74c0-.47.04-.81.12-1.04.11-.31.31-.55.6-.74.29-.19.69-.28,1.2-.28.33,0,.7.04,1.1.12l-.18,1.03c-.24-.04-.48-.07-.69-.07-.36,0-.61.08-.76.23-.15.15-.22.44-.22.86v.64h1.36v.92h-1.36v6.04h-1.17Z" fill="#fff"/><path d="M285.45,131.4v-9.6h1.27v3.94h4.99v-3.94h1.27v9.6h-1.27v-4.53h-4.99v4.53h-1.27Z" fill="#fff"/><path d="M296.56,123.15v-1.36h1.18v1.36h-1.18ZM296.56,131.4v-6.95h1.18v6.95h-1.18Z" fill="#fff"/><path d="M300.68,129.32l1.17-.18c.07.47.25.83.55,1.07.3.25.72.37,1.25.37s.94-.11,1.2-.33c.26-.22.39-.48.39-.78,0-.27-.12-.48-.35-.63-.16-.1-.56-.24-1.2-.4-.86-.22-1.46-.41-1.8-.57-.33-.16-.59-.38-.76-.66-.17-.28-.26-.59-.26-.93,0-.31.07-.6.21-.86.14-.26.33-.48.58-.66.18-.14.43-.25.75-.34.32-.09.66-.14,1.02-.14.55,0,1.02.08,1.44.24s.72.37.91.64.33.63.41,1.08l-1.15.16c-.05-.36-.2-.64-.46-.84-.25-.2-.61-.3-1.06-.3-.54,0-.93.09-1.16.27-.23.18-.35.39-.35.63,0,.15.05.29.14.41.1.13.25.23.45.31.12.04.46.14,1.04.3.83.22,1.42.41,1.75.55.33.14.59.35.78.62.19.27.28.61.28,1.01s-.11.76-.34,1.11-.56.62-.99.81-.92.28-1.47.28c-.9,0-1.59-.19-2.07-.56-.47-.38-.78-.93-.91-1.67Z" fill="#fff"/><path d="M309.46,134.06v-9.62h1.07v.9c.25-.35.54-.62.86-.8.32-.18.7-.27,1.16-.27.59,0,1.12.15,1.57.46.45.31.8.74,1.03,1.29.23.56.35,1.17.35,1.83,0,.71-.13,1.35-.38,1.92-.26.57-.63,1.01-1.11,1.31-.49.3-1,.46-1.54.46-.39,0-.75-.08-1.06-.25-.31-.17-.57-.38-.77-.63v3.39h-1.18ZM310.53,127.96c0,.9.18,1.56.54,1.98.36.43.8.64,1.32.64s.97-.22,1.35-.66c.37-.44.56-1.13.56-2.06s-.18-1.55-.55-1.99c-.36-.44-.8-.66-1.31-.66s-.95.23-1.33.7c-.39.47-.58,1.15-.58,2.05Z" fill="#fff"/><path d="M323.07,130.54c-.44.37-.86.63-1.26.79-.4.15-.84.23-1.3.23-.76,0-1.35-.19-1.76-.56-.41-.37-.62-.85-.62-1.43,0-.34.08-.65.23-.93.15-.28.36-.51.61-.68.25-.17.53-.3.85-.39.23-.06.58-.12,1.05-.18.95-.11,1.65-.25,2.1-.41,0-.16,0-.26,0-.31,0-.48-.11-.82-.33-1.02-.3-.27-.75-.4-1.34-.4-.55,0-.96.1-1.23.29-.26.19-.46.54-.59,1.03l-1.15-.16c.1-.49.28-.89.52-1.2.24-.3.59-.54,1.04-.7.45-.16.98-.25,1.58-.25s1.08.07,1.45.21c.37.14.64.32.82.53.17.21.3.48.37.8.04.2.06.56.06,1.09v1.57c0,1.1.02,1.79.08,2.08.05.29.15.57.3.83h-1.23c-.12-.24-.2-.53-.24-.86ZM322.97,127.91c-.43.17-1.07.32-1.93.45-.48.07-.83.15-1.03.24-.2.09-.36.22-.46.38-.11.17-.16.35-.16.56,0,.31.12.58.36.79.24.21.59.31,1.04.31s.86-.1,1.21-.3c.35-.2.61-.47.78-.82.13-.27.19-.66.19-1.18v-.43Z" fill="#fff"/><path d="M327.6,131.4v-6.95h1.06v.99c.51-.76,1.25-1.15,2.21-1.15.42,0,.8.08,1.16.23.35.15.61.35.79.59.17.24.3.53.37.87.04.22.07.6.07,1.15v4.28h-1.18v-4.23c0-.48-.05-.84-.14-1.08-.09-.24-.25-.43-.49-.57-.23-.14-.51-.21-.82-.21-.5,0-.94.16-1.3.48-.36.32-.55.92-.55,1.81v3.8h-1.18Z" fill="#fff"/><path d="M336.67,123.15v-1.36h1.18v1.36h-1.18ZM336.67,131.4v-6.95h1.18v6.95h-1.18Z" fill="#fff"/><path d="M345.8,128.85l1.16.15c-.13.8-.45,1.42-.97,1.88-.52.45-1.16.68-1.92.68-.95,0-1.72-.31-2.3-.93-.58-.62-.87-1.51-.87-2.68,0-.75.12-1.41.37-1.97s.63-.99,1.14-1.27c.51-.28,1.06-.42,1.66-.42.76,0,1.37.19,1.85.57.48.38.79.92.92,1.63l-1.15.18c-.11-.47-.3-.82-.58-1.05-.28-.24-.61-.35-1.01-.35-.59,0-1.08.21-1.45.64-.37.43-.56,1.1-.56,2.02s.18,1.61.54,2.04c.36.42.83.64,1.4.64.46,0,.85-.14,1.16-.43.31-.28.51-.72.59-1.31Z" fill="#fff"/><path d="M353.26,131.4l3.69-9.6h1.37l3.93,9.6h-1.45l-1.12-2.91h-4.01l-1.05,2.91h-1.35ZM356.03,127.46h3.25l-1-2.66c-.31-.81-.53-1.47-.68-1.99-.12.62-.29,1.23-.52,1.83l-1.05,2.82Z" fill="#fff"/><path d="M364.7,131.4v-9.6h1.18v9.6h-1.18Z" fill="#fff"/><path d="M369.29,131.4v-9.6h1.18v9.6h-1.18Z" fill="#fff"/><path d="M373.91,123.15v-1.36h1.18v1.36h-1.18ZM373.91,131.4v-6.95h1.18v6.95h-1.18Z" fill="#fff"/><path d="M383.03,130.54c-.44.37-.86.63-1.26.79-.4.15-.84.23-1.3.23-.76,0-1.35-.19-1.76-.56-.41-.37-.62-.85-.62-1.43,0-.34.08-.65.23-.93.15-.28.36-.51.61-.68.25-.17.53-.3.85-.39.23-.06.58-.12,1.05-.18.95-.11,1.65-.25,2.1-.41,0-.16,0-.26,0-.31,0-.48-.11-.82-.33-1.02-.3-.27-.75-.4-1.34-.4-.55,0-.96.1-1.23.29-.26.19-.46.54-.59,1.03l-1.15-.16c.1-.49.28-.89.52-1.2.24-.3.59-.54,1.04-.7.45-.16.98-.25,1.58-.25s1.08.07,1.45.21c.37.14.64.32.82.53.17.21.3.48.37.8.04.2.06.56.06,1.09v1.57c0,1.1.02,1.79.08,2.08.05.29.15.57.3.83h-1.23c-.12-.24-.2-.53-.24-.86ZM382.93,127.91c-.43.17-1.07.32-1.93.45-.48.07-.83.15-1.03.24-.2.09-.36.22-.46.38-.11.17-.16.35-.16.56,0,.31.12.58.36.79.24.21.59.31,1.04.31s.86-.1,1.21-.3c.35-.2.61-.47.78-.82.13-.27.19-.66.19-1.18v-.43Z" fill="#fff"/><path d="M387.56,131.4v-6.95h1.06v.99c.51-.76,1.25-1.15,2.21-1.15.42,0,.8.08,1.16.23.35.15.61.35.79.59.17.24.3.53.37.87.04.22.07.6.07,1.15v4.28h-1.18v-4.23c0-.48-.05-.84-.14-1.08-.09-.24-.25-.43-.49-.57-.23-.14-.51-.21-.82-.21-.5,0-.94.16-1.3.48-.36.32-.55.92-.55,1.81v3.8h-1.18Z" fill="#fff"/><path d="M401.16,128.85l1.16.15c-.13.8-.45,1.42-.97,1.88-.52.45-1.16.68-1.92.68-.95,0-1.72-.31-2.3-.93-.58-.62-.87-1.51-.87-2.68,0-.75.12-1.41.37-1.97.25-.56.63-.99,1.14-1.27.51-.28,1.06-.42,1.66-.42.76,0,1.37.19,1.85.57.48.38.79.92.92,1.63l-1.15.18c-.11-.47-.3-.82-.58-1.05-.28-.24-.61-.35-1.01-.35-.59,0-1.08.21-1.45.64-.37.43-.56,1.1-.56,2.02s.18,1.61.54,2.04c.36.42.83.64,1.4.64.46,0,.85-.14,1.16-.43.31-.28.51-.72.59-1.31Z" fill="#fff"/><path d="M409.7,129.16l1.22.15c-.19.71-.55,1.26-1.07,1.66-.52.39-1.18.59-1.99.59-1.02,0-1.82-.31-2.42-.94-.6-.63-.89-1.5-.89-2.64s.3-2.08.9-2.72c.6-.65,1.38-.97,2.34-.97s1.69.32,2.28.95c.59.63.88,1.52.88,2.67,0,.07,0,.17,0,.31h-5.19c.04.76.26,1.35.65,1.76.39.41.87.61,1.45.61.43,0,.8-.11,1.11-.34.31-.23.55-.59.73-1.09ZM405.83,127.25h3.88c-.05-.58-.2-1.02-.45-1.32-.38-.45-.86-.68-1.46-.68-.54,0-1,.18-1.37.54-.37.36-.57.85-.61,1.45Z" fill="#fff"/><path d="M330.98,60.88c-2.25,6.42-4.5,12.84-6.76,19.31h-4.62c-2.27-6.45-4.58-13.02-6.89-19.6-.08,0-.16.02-.24.03-.53,6.5-1.07,13.01-1.61,19.63h-7.72c1.01-11.19,2.01-22.34,3.02-33.54h8.28c2.45,6.34,4.89,12.67,7.47,19.35,2.57-6.66,5-12.96,7.45-19.33h8.29c1.01,11.18,2.01,22.29,3.02,33.53h-7.73c-.53-6.49-1.05-12.93-1.58-19.38-.13,0-.25,0-.38,0Z" fill="#fff"/><path d="M182.67,80.19v-33.28c.42-.35.82-.26,1.2-.26,3.13,0,6.26.03,9.39,0,7.9-.08,16.14,6.87,16.32,16.39.17,8.98-6.18,15.68-13.62,17.1-.51.1-1.03.18-1.55.19-3.72.03-7.44.04-11.15.04-.18,0-.36-.1-.59-.18ZM190.42,73.57c4.3.1,7.67-1.25,9.57-5.06,1.99-3.99,1.77-7.96-.97-11.56-2.14-2.8-5.15-3.67-8.6-3.46v20.07Z" fill="#fff"/><path d="M230.93,66.51c3.88,4.67,7.62,9.16,11.48,13.8h-9.79c-3.25-4.18-6.59-8.48-10.16-13.07v13.06c-2.64.14-5.14.04-7.75.07v-33.5c.17-.29.52-.23.83-.23,4.04,0,8.09,0,12.13.01,1.93,0,3.73.51,5.41,1.44,2.92,1.61,4.43,4.13,4.61,7.42.08,1.49.1,2.97-.35,4.45-.79,2.56-2.32,4.47-4.7,5.71-.52.27-1.05.51-1.72.84ZM222.44,61.51c1.23,0,2.26.03,3.29-.02.44-.02.89-.19,1.31-.33,1.73-.59,2.78-2.07,2.64-4.08-.14-2.05-.74-3.32-2.62-3.89-1.47-.44-3-.71-4.62-.38v8.7Z" fill="#fff"/><path d="M301.96,80.32h-8.19c-1.08-2.07-1.6-4.43-2.63-6.59h-12.83c-.83,2.19-1.65,4.36-2.49,6.56h-8.28c4.55-11.28,9.04-22.38,13.55-33.55h7.28c4.47,11.05,8.98,22.21,13.58,33.58ZM284.78,57c-1.38,3.45-2.69,6.55-3.71,9.84h7.5c-1.26-3.27-2.45-6.38-3.78-9.84Z" fill="#fff"/><path d="M264.97,53.4h-11.51v6.63h11.07c.17,2.33.11,4.51.04,6.84h-11.08v6.72h11.48v6.67h-19.09c-.34-1.31-.42-31.19-.07-33.53h19.17v6.67Z" fill="#fff"/><path d="M366.63,70.91h-15.03c-.14,1.98.82,3.09,2.31,3.83,2.28,1.13,4.6.56,7.36-1.79,1.63.81,3.31,1.64,5.12,2.54-.44.99-1.09,1.77-1.83,2.46-3.95,3.69-12.26,4.63-17.16-.08-5.67-5.45-4.38-14.68,3.48-18.17,3.3-1.47,6.74-1.26,10.06.17,3.49,1.5,6.44,5.34,5.69,11.06ZM359.7,66.88c-.87-2.78-2.24-3.67-4.83-3.34-1.82.23-2.9,1.4-3.02,3.34h7.85Z" fill="#fff"/><path d="M401.07,64.28c-.35,1.15-.03,1.71.75,2.02.72.28,1.46.53,2.19.78,1.17.39,2.31.83,3.39,1.46,2.24,1.32,3.32,3.27,3.17,5.83-.16,2.61-1.37,4.61-3.87,5.6-4.2,1.65-8.38,1.53-12.46-.45-.41-.2-.77-.48-1.13-.76-.2-.15-.35-.36-.61-.64.93-1.58,1.84-3.13,2.78-4.73,1.18.62,2.3,1.23,3.43,1.81.84.43,1.74.56,2.66.39.65-.12,1.28-.38,1.44-1.13.17-.77-.3-1.25-.9-1.57-.57-.31-1.17-.55-1.78-.77-1.42-.51-2.69-1.25-3.94-2.09-3.24-2.16-3.04-7.43.38-9.62,1.11-.71,2.31-1.19,3.61-1.4,3.15-.52,6.21-.24,9.18.98.25.1.47.22.61.64-.52,1.47-1.35,2.92-2.17,4.45-2.22-.88-4.38-1.78-6.74-.82Z" fill="#fff"/><path d="M390.21,60.15c-1.03,2.08-1.97,3.98-3.01,6.07-.65-.46-1.27-.72-1.94-.89-3.6-.91-6.08.88-6.19,4.6-.07,2.6-.01,5.21-.01,7.81,0,.78,0,1.56,0,2.39-1.16.48-2.33.18-3.47.23-1.16.05-2.32.01-3.58.01v-20.98h6.82c.49.84.01,1.73.46,2.75,1.85-2.01,3.89-3.54,6.73-3.36,1.45.09,2.81.36,4.2,1.37Z" fill="#fff"/><path d="M295.31,22.25c-.07-.01-.15-.02-.22-.03.03-.06.05-.12.08-.18.04.08.07.16.11.24l.03-.03Z" fill="#fff"/><path d="M305.83,35.2c.25-.29.18-.64.18-.97,0-4.47,0-8.94,0-13.41,0-.16-.05-.32-.07-.44-.5-.63-1.21-.31-1.8-.55-.34-.37-.3-.77-.04-1.26h5.64c.43.39.12.78.26,1.17-.69.33-1.46.07-2.09.62v17.79c-.88.3-1.71.11-2.62.17-.47-.7-.95-1.38-1.4-2.09-2.03-3.2-4.07-6.39-6.07-9.6-.88-1.42-1.69-2.88-2.53-4.33-.04-.08-.07-.16-.11-.24-.03.06-.05.12-.08.18.07.01.15.02.22.03-.06.21-.17.42-.17.64-.01,4.58,0,9.17,0,13.77.73.44,1.57.34,2.29.64.23.23.22.5.1.89h-6.32c-.25-.26-.22-.52-.03-.89.58-.15,1.22-.32,1.97-.52v-16.51c-.53-.42-1.2-.25-1.78-.44-.32-.35-.19-.75-.14-1.21,1.44-.29,2.89-.04,4.33-.15.76.79,1.19,1.71,1.71,2.58,2.76,4.67,5.86,9.14,8.32,13.98.04.07.18.09.27.14.03.08.07.17.11.25.03-.06.09-.12.09-.18-.01-.11-.1-.12-.21-.05h0Z" fill="#fff"/><path d="M247.93,19.96c-.66-.07-1.21-.13-1.66-.17-.45-.42-.24-.79-.27-1.1.21-.1.31-.18.4-.18,2.26-.04,4.53-.02,6.79-.24,1.36-.13,2.72-.01,4.05.3,3.18.75,5.32,2.61,6.18,5.83.61,2.29.64,4.58.02,6.87-1.22,4.46-4.86,7.25-9.49,7.24-2.6,0-5.19-.33-7.67-.2-.44-.27-.33-.56-.3-.9.52-.41,1.22-.4,1.85-.55.27-1.24.36-14.19.1-16.89h0ZM250.7,36.55c.42.12.73.28,1.06.3.79.07,1.58.12,2.38.1,3.19-.07,5.46-1.74,6.48-4.78.91-2.73.76-5.48-.2-8.15-.75-2.1-2.3-3.47-4.5-4-1.72-.42-3.45-.2-5.22-.09v16.62h0Z" fill="#fff"/><path d="M236.36,20.16c-.87-.44-1.6-.12-2.19-.48-.25-.33-.18-.66-.09-1.09h6.05c.34.32.15.69.06,1.01-.53.44-1.17.12-1.72.46-.36.4-.15.93-.17,1.42-.09,3.45.21,6.91-.21,10.35-.34,2.78-1.4,5.22-4.21,6.28-2.58.98-5.23.88-7.72-.44-1.86-.99-2.65-2.72-2.99-4.69-.22-1.28-.32-2.58-.31-3.89.03-2.99,0-5.98,0-8.89-.6-.53-1.33-.13-1.85-.51-.25-.31-.2-.64-.05-1.08h6.63c.28.33.2.66.1,1.01-.6.51-1.44.04-2.05.44-.23.26-.17.56-.17.83,0,3.23,0,6.45,0,9.68,0,1.31.21,2.6.74,3.8.92,2.1,2.6,3.03,5.24,2.93,2.08-.07,3.46-1.17,4.23-3.31.37-1.03.46-2.1.54-3.17.27-3.55.05-7.11.13-10.66h0Z" fill="#fff"/><path d="M282.54,21.98c-.21-.6-.42-1.23-.68-1.99h-6.86v7.2c1.47.24,2.92-.17,4.35-.03.55-.55.43-1.31.72-1.88.41-.2.78-.25,1.21.05v5.15c-.37.35-.74.28-1.19.09-.16-.54-.34-1.13-.54-1.8h-4.58v8.14c2.47-.09,4.93.02,7.42-.31.63-.66.76-1.62,1.34-2.34.44-.19.85-.14,1.28.26-.31,1.16-.19,2.43-.63,3.6-1.36.22-12.44.24-14.04.02-.23-.17-.1-.41-.15-.65.59-.52,1.38-.43,2.05-.68.26-1.28.29-15.06.03-16.72-.53-.4-1.22-.07-1.77-.38-.28-.27-.29-.6-.21-.95.33-.35,9.52-.48,13.21-.18.45,1.09.04,2.31.56,3.34-.63.37-1.05.32-1.51.06h0Z" fill="#fff"/><path d="M193.8,19.28v3.41c-.52.31-.91.23-1.19-.23-.12-.19-.18-.41-.27-.62-.38-.87-.63-1.78-1.8-2.04-1.38-.31-2.71-.37-3.95.36-1.68.99-2.02,3.01-.79,4.52.54.66,1.22,1.18,1.96,1.61,1.28.73,2.56,1.44,3.84,2.17.84.48,1.56,1.12,2.23,1.81,2.11,2.18,1.37,5.91-1.11,7.32-.39.22-.8.44-1.22.59-2.28.81-6.46.49-8.84-.67v-3.83c.33-.36.69-.27,1.13-.03.11.31.3.67.36,1.05.22,1.46,1.21,2.11,2.52,2.38,1.34.28,2.7.4,4.01-.15,1.94-.83,2.59-3.12,1.34-4.81-.61-.83-1.42-1.45-2.31-1.97-1.17-.68-2.35-1.36-3.51-2.05-.83-.5-1.61-1.07-2.25-1.8-2.07-2.38-1.52-5.49,1.2-7.06.95-.55,1.99-.81,3.06-.94,1.6-.2,3.79.2,5.59,1h0Z" fill="#fff"/><path d="M330.87,18.58v3.57c-.27.32-.55.46-.97.32-.47-.62-.4-1.47-.82-2.22-1.43-.08-2.87-.37-4.44-.29v16.84c1.05.17,2.09.34,3.06.5.26.33.25.59.05.93h-8.69c-.3-.26-.23-.52-.1-.85.89-.45,1.95-.29,2.95-.6v-16.73c-1.47-.3-2.9.25-4.29.15-.7.53-.63,1.39-1.11,1.96-.28.25-.62.16-1.04.12-.2-1.22-.02-2.43.24-3.69h15.15,0Z" fill="#fff"/><path d="M209.95,19.98v16.8c1.09.18,2.13.34,3.09.5.26.33.23.59.06.94h-8.68c-.28-.29-.22-.55-.09-.92.95-.16,1.94-.33,3-.52v-16.78c-1.54-.23-2.97.21-4.41.19-.57.58-.63,1.36-1.04,1.95-.31.26-.65.15-1.05.14-.34-1.25.16-2.42.19-3.71h15.18v3.59c-.22.29-.51.39-.89.31-.56-.63-.4-1.54-.94-2.26-1.38-.06-2.82-.39-4.43-.24h0Z" fill="#fff"/><path d="M345.05,112.85v-21.24c-.83-.7-1.8-.36-2.57-.74-.37-.52-.32-1.04-.04-1.7h8.07c.46.45.33,1.04.1,1.69-.79.38-1.76.07-2.72.77v25.09h-3.93c-4.53-7.51-9.81-14.73-14.11-23.07v20.96c1.07.53,2.35.31,3.35.94.26.28.15.61.14.9-.53.55-6.54.62-9.11.12-.16-.29-.16-.59,0-.96.75-.73,1.91-.48,2.93-.98v-23.03c-.8-.62-1.83-.37-2.69-.71-.33-.52-.34-1.04-.03-1.72h6.34c4.67,7.63,9.58,15.35,14.28,23.67h0Z" fill="#fff"/><path d="M390.46,116.74c-.04-.42-.07-.72-.1-1.04.77-.83,1.94-.55,2.88-1.06v-23.31c-.75-.58-1.71-.17-2.47-.51-.51-.48-.41-1-.17-1.66h18.32c.57,1.55.59,3.18.58,4.74-.6.49-1.12.37-1.66.22-.89-.72-.48-2-1.38-2.96h-9.37v9.98h6c1-.71.44-1.82,1.09-2.52.46-.39.97-.36,1.5-.09.47.51.53,4.66.13,7.49-.51.33-1.04.23-1.58.07-.66-.68-.21-1.73-.98-2.71h-6.19v11.36c3.42.32,6.85-.1,10.24-.24,1.08-.93,1.14-2.35,1.98-3.33.54-.29,1.04-.16,1.63.23.23,1.77-.36,3.49-.61,5.34h-19.84,0Z" fill="#fff"/><path d="M313.9,114.68c1.05.28,1.88.5,2.64.7.32.44.31.81.1,1.33h-9.12c-.4-.35-.18-.74-.19-1.1.82-.63,1.82-.58,2.85-.92-.63-1.85-1.23-3.62-1.87-5.49h-10.77c-.61,1.84-1.2,3.62-1.81,5.45,1.04.29,1.94.53,2.85.78.03.44.04.75.07,1.23h-8.38c-.37-.28-.27-.72-.09-1.17.65-.54,1.5-.49,2.4-.77,3.08-8.48,6.19-17.02,9.28-25.53,1.06-.27,2-.17,3.16-.09,2.95,8.47,5.9,16.98,8.89,25.57h0ZM303.17,93.52c-1.77,4.34-3.49,8.62-4.72,13.34,3.13,0,6,.07,9.08-.06-1.52-4.64-2.94-8.96-4.35-13.28h0Z" fill="#fff"/><path d="M206.61,114.67c.92.25,1.75.48,2.54.69.35.37.28.76.19,1.32h-9.26c-.21-.42-.21-.72-.05-1.09.7-.62,1.72-.53,2.7-.85-.25-1.96-1.19-3.62-1.64-5.52h-10.84c-.61,1.79-1.22,3.57-1.87,5.46.96.25,1.85.49,2.63.69.33.5.27.87.06,1.36h-8.14c-.38-.4-.3-.76-.13-1.19.67-.53,1.6-.48,2.5-.9,3.06-8.42,6.14-16.89,9.21-25.36,1.06-.44,2.07-.15,3.17-.22,3,8.62,5.96,17.13,8.92,25.62h0ZM200.21,106.73c-1.5-4.53-2.94-8.92-4.54-13.78-1.63,4.82-3.1,9.2-4.64,13.78h9.18,0Z" fill="#fff"/><path d="M381.3,90.15c-.1,1.73-.05,3.32-.44,4.87-.5.37-1.04.28-1.61.15-.78-.75-.62-1.93-1.25-2.79-4.5-2.98-10.75-1.6-13.27,3.29-2.7,5.23-2.52,10.66.6,15.65,2.45,3.92,5.96,4.73,10.41,3.79,1.61-.34,2.93-1.21,3.36-3,.11-.45.37-.87.53-1.24.48-.4.94-.33,1.4-.19.39.55.42,1.92.1,4.99-3.36,1.11-6.76,2.02-10.41,1.64-5.78-.6-10.2-4.52-11.2-10.33-.67-3.91-.3-7.79,1.85-11.26,3.08-4.96,7.66-7.21,13.45-6.97,2.13.09,4.24.54,6.48,1.41h0Z" fill="#fff"/><path d="M254.59,89.04c0,.86.19,1.34-.19,1.81-.82.44-1.87.04-2.86.71v23.2c3.11.25,6.15-.49,9.34-.28.77-1.44,1.52-2.81,2.24-4.16.68.06,1.15.3,1.61.84-.36,1.77-.72,3.62-1.11,5.57h-18.55c-.4-.35-.29-.73-.15-1.15.74-.62,1.77-.45,2.75-.9v-23c-.67-.81-1.78-.38-2.59-.81-.35-.52-.33-1.04.02-1.73,3.13-.17,6.31-.04,9.51-.09h0Z" fill="#fff"/><path d="M219.77,91.46c-.87-.19-1.7-.37-2.54-.55-.38-.51-.28-1.04-.12-1.73h9.24c.49.37.21.95.23,1.54-.81.68-2.01.19-2.94.96v23.16c3.15-.16,6.21-.32,9.35-.48.72-1.32,1.44-2.62,2.09-3.81.69-.17,1.1-.01,1.53.47.15,1.91-.64,3.75-.86,5.74h-18.48c-.47-.31-.31-.72-.26-1.19.75-.55,1.73-.54,2.76-.81v-23.3h0Z" fill="#fff"/><path d="M272.83,116.8c-.32-.49-.34-.86-.09-1.25.84-.65,1.96-.43,2.97-.86v-23.36c-.74-.67-1.81-.11-2.68-.54-.4-.43-.51-.93-.15-1.62h9.35c.39.53.35,1.03.03,1.55-.76.5-1.73.05-2.64.57v23.39c.94.47,2.08.2,2.94.85.24.36.25.73-.07,1.28h-9.65Z" fill="#fff"/><path d="M37.6,22.41l.89-.07.14-.37c-.34.15-.68.3-1.03.44Z" fill="#fff"/><polygon points="70.68 30.72 70.95 32.24 70.95 30.34 70.68 30.72" fill="#fff"/><path d="M131.16,14.62c-9.41,0-17.72,2.75-24.42,8.24l13.2-1.71,17.44-1.62c4.14-.27,8.28-.44,12.42-.48-5.49-2.95-11.77-4.43-18.64-4.43ZM157.93,25.03c-1.82,0-3.64.01-5.46.08-5.38.19-10.64.63-16,1.23l-21.24,2.89-16.45,2.6c-2.09,3.2-3.88,6.85-5.34,10.95l7.21-1.43,19.06-3.87c6.85-1.39,13.66-2.43,20.61-3.27,7.92-.96,15.82-1.53,23.73-1.48-1.81-2.92-3.85-5.48-6.12-7.7ZM114.52,46.65l-23.62,5.16c-.71,3.36-1.24,6.93-1.57,10.74l11.62-2.93,18-4.61c.6-4.21,1.46-7.39,2.5-9.79l-6.93,1.43ZM167.4,39.15c-1.94,0-3.87.07-5.81.17-5.37.25-10.62.79-15.93,1.52l-6.64,1.12c1.33,1.76,2.48,4.3,3.38,7.93.5-.09,1.01-.18,1.51-.27,8.67-1.51,17.41-2.62,26.18-2.98-.77-2.66-1.67-5.16-2.69-7.49ZM110.1,64.02c-7.06,1.98-14.11,3.78-21.18,5.38-.03,1.19-.05,2.4-.05,3.63,0,2.41.07,4.76.2,7.03l8.02-2.2,14.44-4.62,6.38-2c.03-3.52.14-6.67.34-9.5l-8.15,2.28ZM171.35,51.61c-9.22.26-18.37,1.42-27.43,3.41l-.53.13c.36,2.49.63,5.34.8,8.6,1.7-.38,3.41-.75,5.13-1.1,7.63-1.57,15.29-2.71,23.05-3.3.09-.01.18-.01.27-.02-.33-2.69-.76-5.27-1.29-7.72ZM117.97,78.34l-12.49,4-15.76,4.93c.43,3.39,1.02,6.6,1.76,9.62l20.25-6.99,6.79-2.31c-.27-2.73-.46-5.8-.55-9.25ZM173.17,64.92c-9.7,1.09-19.27,3.09-28.77,5.57.01.83.02,1.67.02,2.54,0,2.16-.03,4.2-.09,6.12,2.96-.85,5.93-1.65,8.92-2.43,6.66-1.72,13.39-3.17,20.19-4.19-.01-2.63-.1-5.16-.27-7.61ZM119.31,93.48l-7.28,2.64-18.76,6.93c1.1,3.21,2.39,6.16,3.86,8.85l9.37-3.66,15.31-6.07c-1.01-2.18-1.86-5.02-2.5-8.69ZM151.92,82.51l-7.9,2.52c-.29,3.98-.74,7.33-1.33,10.13l4.76-1.5c8.31-2.78,16.7-5.23,25.22-7.06.35-2.92.58-5.98.69-9.17-7.23,1.29-14.39,3.06-21.44,5.08ZM157.29,97.4l-17.16,5.56c-2.39,4.61-5.56,5.91-8.97,5.91-1.6,0-3.14-.28-4.58-1.06l-10.92,3.97-15.04,5.59c2.07,2.8,4.4,5.21,6.94,7.25l19.48-7.94,20.63-7.9c7.17-2.56,14.4-4.89,21.73-6.82.85-2.62,1.57-5.4,2.16-8.35-4.78,1.12-9.53,2.4-14.27,3.79ZM119.31,93.48l-7.28,2.64-18.76,6.93c1.1,3.21,2.39,6.16,3.86,8.85l9.37-3.66,15.31-6.07c-1.01-2.18-1.86-5.02-2.5-8.69ZM163.18,109.58l-18.91,7.12-22,9.19-7.49,3.19c4.36,2.02,9.16,3.16,14.32,3.39l4.77-2.21,20.23-8.86c2.15-.88,4.3-1.75,6.46-2.58,2.47-3.02,4.61-6.53,6.41-10.52-1.26.42-2.53.85-3.79,1.28Z" fill="#fff"/><path d="M70.95,101.45v-8.86c-1.5.37-3,.73-4.5,1.08-8.7,2.03-17.49,3.6-26.32,4.41v3.37c0,2.32-1.88,4.2-4.19,4.2h-15.99c-2.31,0-4.19,1.87-4.19,4.19v.65c17.47,1.24,34.93-1.74,51.82-6.28,1.25-.34,2.5-.68,3.75-1.03-.25-.53-.38-1.11-.38-1.73ZM87.18,105.65h-1.08c-5.31,1.88-10.63,3.63-16.01,5.3-17.21,5.3-36.16,9.63-54.33,8.09v7.14c0,2.32,1.88,4.19,4.19,4.19h12.13c12.17-1.3,24.19-4.24,35.95-7.94,6.68-2.1,13.25-4.34,19.78-6.89l3.57-1.39v-4.31c0-2.32-1.88-4.19-4.2-4.19ZM72.64,127.15c-3.55,1.12-7.16,2.21-10.81,3.22h25.35c2.32,0,4.2-1.87,4.2-4.19v-5.4c-6.21,2.27-12.44,4.38-18.74,6.37Z" fill="#fff"/><path d="M69.38,27.83l.7,1.49.87-.03v-8.33c0-2.05-1.48-3.76-3.43-4.11-.24-.06-.5-.08-.76-.08h-17.21c-.3,0-.6.03-.89.1-.45.1-.89.28-1.29.52-2.61,1.58-5.21,2.97-7.93,4.21l.41,1.26,1.46.11-.97,1.27.21,1.83-1.38-.92-1.31.87.28-2.02-1.1-1.35c-4.43,1.81-9.28,3.28-15.11,4.55-.04.01-.08.02-.12.03l.97.31-1.2,1.11.22,2.21-1.39-1.23-1.43.62.16-.95c-.33.6-.51,1.27-.51,1.99v11.37l1.18-.1.61-1.62.69,2.15,1.75.21-1.25,1.37.27,1.92-1.49-1.16-.45.28c.75.72,1.76,1.16,2.88,1.16h8.8l.14-.73-1.28-1.56,1.47-.12.7-1.98.73,2.08,1.71.16-1.15,1.26.1.89h1.9c2.31,0,4.19,1.88,4.19,4.2v.14l.42,1.15,1.62.15-1.2,1.32.41,1.98-1.25-.84v10.53-.03s.9,1.76.9,1.76l1.64.31-1.1,1.47c-.14.58.25,1.25.22,1.91l-1.46-.99-.2.13v10.31l.32-.97.8,2.04,1.86.09-1.25,1.32.43,2.2-1.57-.99-.59.39v5.18c7.45-.43,14.89-1.34,22.38-2.77,2.83-.54,5.65-1.14,8.44-1.8v-11.17l-.37.3.21-1.75-1.45-1.29,1.61-.44v-11.53l-1.08.98.27-1.78-1.25-1.22,1.55-.32.51-1.53v-9.4l-.49-.21-1.35.93.19-1.74-1.24-1.21,1.59-.3.43-1.65.83,1.52h.04v-10.85l-1.39-.63c-.46.13-.82.65-1.19.92l.18-1.76-1.22-1.19,1.59-.33.46-1.58ZM28.19,40.23l-1.31-1.45-1.39.8.37-1.77-1.35-1.64,1.74-.18.53-1.63.78,1.98,1.78.65-1.34.99.19,2.25ZM33.95,32.78l-1.38-1.3-1.35.99.15-2.02-1.09-1.39,1.61-.21.52-1.56.67,1.88,1.67.38-1.05.98.25,2.25ZM41.11,41.28l-1.58-.98-1.37.75.34-1.75-1.18-1.64,1.45-.28.62-1.61.79,1.85,1.63.34-1.1,1.41.4,1.91ZM62.85,23.15l.54-1.73.76,1.62,1.61.09-1.21,1.28.45,1.84-1.38-.97-1.29,1.2.24-1.97-1.25-1.07,1.53-.29ZM59.27,47.6l-1.35-.8-1.2,1.01.08-1.65-1.17-1.21,1.51-.26.54-1.76.75,1.51,1.66-.06-1.18,1.59.36,1.63ZM56.45,30.17l.53-1.64.71,1.55,1.61.13-1.07,1.31.33,1.61-1.34-.75-1.27,1.01.11-1.73-1.14-1.23,1.53-.26ZM42.84,30.32l1.48-.19.66-1.74.7,1.68,1.63.29-1.21,1.26.32,1.79-1.37-.83-1.23.78.06-1.75-1.04-1.29ZM44.86,44.97l.58-1.73.79,1.75,1.6.28-1.15,1.26.16,1.88-1.22-.98-1.34.97.35-1.72-1.21-1.44,1.44-.27ZM45.21,59.38l.61-1.7.84,1.69,1.58.11-.94,1.37c-.17.58.22,1.25.14,1.97l-1.44-.81-1.35.88.31-1.74-1.31-1.38,1.56-.39ZM47.88,77.53l-1.36-.75-1.35.96.35-1.66-1.38-1.28,1.52-.39.64-2.07.78,1.81,1.61.12-1.13,1.46.32,1.8ZM50.54,22.98l.59-1.5.79,1.87,1.48.05-1,1.48.28,1.78-1.32-.95-1.39.93.34-1.94-1.32-1.39,1.55-.33ZM51.12,38.04l.51-1.77.76,1.51,1.66.11-1.1,1.29.32,2-1.43-.9-1.24.89.3-1.79-1.31-1.08,1.53-.26ZM51.59,52.09l.62-1.64.76,1.51,1.57-.09-1.16,1.59.51,1.87-1.49-.94-1.33,1.11.42-1.87-1.38-1.18,1.48-.36ZM52.19,66.65l.71-1.75.69,1.63,1.65-.11-1.03,1.41.24,2.11-1.34-.75-1.54.94.12-1.82-1.16-1.32,1.66-.34ZM55,83.4l-1.52-.73-1.49,1.22.24-1.93-1.33-1.3,1.75-.42.58-1.94.73,1.64h1.92c-.25.59-.93.98-1.08,1.6l.2,1.86ZM57.8,58.59l.55-1.62.71,1.45,1.65-.09-1.17,1.46.42,1.66-1.47-.55-1.3.96.1-1.71-1.15-1.23,1.66-.33ZM60.67,75.84l-1.57-.59-1.43,1.16.28-1.86-1.23-1.26,1.49-.24.66-1.97.81,1.58,1.66-.07-1.09,1.46.42,1.79ZM61.96,37.53l1.68-.32.37-1.8.76,1.76,1.83-.17-1.27,1.58.49,1.67-.08.14-1.39-.77-1.45,1.09.41-2.01-1.35-1.17ZM65.86,40.51v-.16c.08.05.08.13,0,.16ZM64.17,50.96l.67-1.87.7,1.7,1.72-.14-1.16,1.49.48,1.69-.12.15-1.4-.78-1.52,1.19.35-1.91-1.26-1.23,1.54-.29ZM66.58,54.08l.03-.19c.08.05.07.17-.03.19ZM68.17,81.24l-1.6-.87-1.52,1.14.21-1.72-1.28-1.22,1.61-.44.69-2.05.75,1.65,1.8-.12-1.2,1.73.54,1.9ZM68.19,64.57l-1.3,1.81.6,1.86-1.62-.87-1.49,1.16.3-1.92-1.36-1.21,1.69-.44.5-1.82.79,1.55,1.89-.12Z" fill="#fff"/></svg>